<svg width="1024" height="1024" xmlns="http://www.w3.org/2000/svg" class="icon">
  <g id="svg_1" fill="#fff">
    <path id="svg_2" d="m1011.88496,419.95103l-489.47114,0l0,196.22615l279.62038,0c-12.05727,63.42664 -48.63552,117.075 -103.77384,153.01676c-46.6034,30.39193 -106.07692,48.36281 -175.98201,48.36281c-135.33951,0 -249.81588,-89.19371 -290.72933,-209.04362c-10.2961,-30.39193 -16.257,-62.89808 -16.257,-96.3292s5.9609,-65.93727 16.257,-96.3292c41.04892,-119.71777 155.52529,-208.91148 290.8648,-208.91148c76.27242,0 144.68729,25.63493 198.60633,75.84769l149.02249,-145.48485c-90.09087,-81.92607 -207.54768,-132.13882 -347.62882,-132.13882c-203.07701,0 -378.78807,113.63939 -464.27279,279.34147c-35.2235,68.44791 -55.2738,145.88126 -55.2738,227.80733s20.0503,159.22728 55.2738,227.67519c85.48472,165.70209 261.19578,279.34147 464.27279,279.34147c140.35209,0 257.94438,-45.45576 343.83552,-122.88911c98.21937,-88.26873 154.98339,-218.29334 154.98339,-372.76362c0,-35.94176 -3.2514,-70.42999 -9.34777,-103.72898z"/>
  </g>
</svg>
